#!OML:ASF H:\ManfredETheater\Project 1\Capture day 1\Session 1\subject.ASF
:FULLY-SPECIFIED
:DEGREES
201
root -10.0545 17.2556 -30.1182 -185.644 -23.835 180.772
lowerback 12.0833 -0.745643 0.760797
upperback -0.0391386 -0.816211 2.57807
thorax -6.8044 -0.42569 2.44442
lowerneck -18.4087 -1.41995 -2.36829
upperneck 13.4875 -1.3347 0.081812
head 7.16714 -0.763263 0.258001
rclavicle 7.5644e-015 -2.46493e-014
rhumerus -34.6614 -11.7071 -66.3313
rradius 35.7498
rwrist 8.13013
rhand -24.3737 -4.6586
rfingers 7.12502
rthumb 2.11647 -34.6279
lclavicle 7.5644e-015 -2.46493e-014
lhumerus -39.1626 -7.56283 90.7555
lradius 61.5117
lwrist 4.93656
lhand -23.9243 -1.34119
lfingers 7.12502
lthumb 2.55046 28.6233
rfemur -26.032 -3.2333 20.2549
rtibia 47.3933
rfoot -13.6502 -1.87923
rtoes -22.3898
lfemur -29.1717 -8.36895 -21.0065
ltibia 51.3442
lfoot -13.1572 -0.851057
ltoes 1.72421
202
root -10.0833 17.2899 -30.2188 -185.484 -24.3791 180.75
lowerback 11.6863 -0.911313 0.691822
upperback -0.135486 -1.0469 2.54208
thorax -6.67392 -0.533722 2.4768
lowerneck -18.3029 -1.41545 -2.38589
upperneck 13.7914 -1.32309 0.0340337
head 7.2488 -0.767361 0.246037
rclavicle -3.45668e-014 2.46493e-014
rhumerus -35.099 -12.4334 -65.2589
rradius 34.2752
rwrist 9.1109
rhand -24.0762 -4.90583
rfingers 7.12502
rthumb 2.40375 -34.872
lclavicle -3.45668e-014 2.46493e-014
lhumerus -39.381 -7.70772 90.6082
lradius 61.0311
lwrist 4.41941
lhand -23.3538 -1.60941
lfingers 7.12502
lthumb 3.10147 28.3478
rfemur -25.12 -2.97796 20.1895
rtibia 46.3327
rfoot -13.7344 -2.32131
rtoes -20.5329
lfemur -28.7667 -8.44802 -21.0865
ltibia 50.9897
lfoot -13.4502 -1.31305
ltoes 2.15856
203
root -10.1109 17.322 -30.3161 -185.337 -24.9355 180.758
lowerback 11.3386 -1.06866 0.648833
upperback -0.249328 -1.26108 2.52012
thorax -6.59023 -0.634539 2.50642
lowerneck -18.2027 -1.42044 -2.40706
upperneck 14.1162 -1.31927 -0.0428103
head 7.33836 -0.779043 0.223998
rclavicle 1.2393e-014 -7.15625e-015
rhumerus -35.586 -13.0244 -64.2256
rradius 32.9011
rwrist 9.73214
rhand -23.7811 -5.1944
rfingers 7.12502
rthumb 2.68881 -35.1572
lclavicle 1.2393e-014 -7.15625e-015
lhumerus -39.6021 -7.7889 90.4892
lradius 60.571
lwrist 3.84921
lhand -22.8437 -1.85735
lfingers 7.12502
lthumb 3.594 28.0921
rfemur -24.2516 -2.78794 20.1749
rtibia 45.3839
rfoot -13.9325 -2.81676
rtoes -19.1096
lfemur -28.3971 -8.5087 -21.1294
ltibia 50.6644
lfoot -13.733 -1.80618
ltoes 2.57241
204
root -10.1377 17.3532 -30.4101 -185.222 -25.4753 180.834
lowerback 11.0334 -1.21103 0.664006
upperback -0.370995 -1.44677 2.52391
thorax -6.54024 -0.72361 2.5258
lowerneck -18.112 -1.43236 -2.42871
upperneck 14.4544 -1.31915 -0.154813
head 7.43394 -0.796822 0.189773
rclavicle -2.82088e-014 -7.15625e-015
rhumerus -36.1139 -13.5264 -63.2217
rradius 31.6356
rwrist 10.0479
rhand -23.4747 -5.50722
rfingers 7.12502
rthumb 2.98464 -35.4661
lclavicle -2.82088e-014 -7.15625e-015
lhumerus -39.8081 -7.79455 90.3932
lradius 60.1157
lwrist 3.21452
lhand -22.3774 -2.04522
lfingers 7.12502
lthumb 4.04438 27.8961
rfemur -23.4463 -2.62147 20.2469
rtibia 44.5197
rfoot -14.1489 -3.36383
rtoes -18.1811
lfemur -28.0544 -8.5455 -21.0948
ltibia 50.3627
lfoot -14.0101 -2.31441
ltoes 3.02369
205
root -10.1636 17.3841 -30.5002 -185.132 -25.982 180.986
lowerback 10.7764 -1.33422 0.747647
upperback -0.506523 -1.59715 2.55549
thorax -6.53443 -0.797752 2.53119
lowerneck -18.0362 -1.44846 -2.44689
upperneck 14.8112 -1.31886 -0.306575
head 7.53814 -0.819297 0.141491
rclavicle -6.17351e-014 1.19271e-014
rhumerus -36.6895 -13.9837 -62.2304
rradius 30.4863
rwrist 10.1368
rhand -23.138 -5.8327
rfingers 7.12502
rthumb 3.30984 -35.7868
lclavicle -6.17351e-014 1.19271e-014
lhumerus -39.9998 -7.71218 90.3166
lradius 59.6599
lwrist 2.5118
lhand -21.9423 -2.16302
lfingers 7.12502
lthumb 4.46452 27.7699
rfemur -22.735 -2.46244 20.4097
rtibia 43.7263
rfoot -14.2945 -3.97067
rtoes -17.597
lfemur -27.7504 -8.57102 -20.9724
ltibia 50.0838
lfoot -14.2758 -2.81141
ltoes 3.45312
206
root -10.1898 17.4153 -30.5868 -185.064 -26.4391 181.197
lowerback 10.5517 -1.43439 0.893578
upperback -0.646658 -1.70909 2.61012
thorax -6.55447 -0.855543 2.52042
lowerneck -17.9878 -1.46684 -2.46707
upperneck 15.1896 -1.31481 -0.491235
head 7.65426 -0.844587 0.0824945
rclavicle 8.56016e-015 1.27222e-014
rhumerus -37.3083 -14.4418 -61.2368
rradius 29.4548
rwrist 10.0766
rhand -22.7583 -6.17748
rfingers 7.12502
rthumb 3.67651 -36.1255
lclavicle 8.56016e-015 1.27222e-014
lhumerus -40.1617 -7.52839 90.2534
lradius 59.1862
lwrist 1.73713
lhand -21.5389 -2.20969
lfingers 7.12502
lthumb 4.85403 27.7147
rfemur -22.1141 -2.31489 20.6392
rtibia 42.9968
rfoot -14.331 -4.59857
rtoes -17.1654
lfemur -27.4693 -8.59257 -20.7835
ltibia 49.8243
lfoot -14.5396 -3.27275
ltoes 3.92102
207
root -10.2155 17.4464 -30.6697 -185.017 -26.8198 181.488
lowerback 10.3581 -1.50448 1.11159
upperback -0.793381 -1.77202 2.69568
thorax -6.60228 -0.89229 2.49513
lowerneck -17.9653 -1.48506 -2.48392
upperneck 15.5819 -1.30424 -0.711066
head 7.77961 -0.871386 0.0113962
rclavicle 5.32619e-014 -1.59028e-015
rhumerus -37.973 -14.9313 -60.2268
rradius 28.5484
rwrist 9.93898
rhand -22.3425 -6.54827
rfingers 7.12502
rthumb 4.07808 -36.489
lclavicle 5.32619e-014 -1.59028e-015
lhumerus -40.2902 -7.23776 90.1984
lradius 58.6869
lwrist 0.91109
lhand -21.1537 -2.17079
lfingers 7.12502
lthumb 5.22599 27.7448
rfemur -21.5973 -2.14226 20.9587
rtibia 42.3321
rfoot -14.2716 -5.26001
rtoes -16.853
lfemur -27.2258 -8.60568 -20.4994
ltibia 49.5832
lfoot -14.7976 -3.68368
ltoes 4.45717
208
root -10.2413 17.4773 -30.7494 -184.975 -27.1163 181.824
lowerback 10.1729 -1.54159 1.37454
upperback -0.936953 -1.78667 2.80154
thorax -6.65404 -0.907754 2.45868
lowerneck -17.9735 -1.50109 -2.50356
upperneck 15.9857 -1.28525 -0.948913
head 7.91447 -0.897499 -0.065042
rclavicle 8.54277e-014 -3.4191e-014
rhumerus -38.6742 -15.4851 -59.1913
rradius 27.7597
rwrist 9.79295
rhand -21.9112 -6.93982
rfingers 7.12502
rthumb 4.49453 -36.8721
lclavicle 8.54277e-014 -3.4191e-014
lhumerus -40.3737 -6.83813 90.1413
lradius 58.1564
lwrist 0.0479172
lhand -20.7941 -2.08948
lfingers 7.12502
lthumb 5.57313 27.8172
rfemur -21.1678 -1.95915 21.3305
rtibia 41.7309
rfoot -14.1577 -5.92568
rtoes -16.6196
lfemur -27.0094 -8.61487 -20.1572
ltibia 49.3562
lfoot -15.052 -4.02597
ltoes 4.96625
209
root -10.2677 17.5077 -30.8271 -184.912 -27.3396 182.14
lowerback 9.97612 -1.54679 1.6212
upperback -1.07023 -1.76292 2.90907
thorax -6.68883 -0.904546 2.42655
lowerneck -18.0123 -1.5146 -2.52495
upperneck 16.396 -1.25905 -1.19473
head 8.05739 -0.922393 -0.143846
rclavicle 1.88597e-014 -7.95139e-015
rhumerus -39.4063 -16.1142 -58.1306
rradius 27.081
rwrist 9.669
rhand -21.502 -7.36062
rfingers 7.12502
rthumb 4.88967 -37.2842
lclavicle 1.88597e-014 -7.95139e-015
lhumerus -40.4059 -6.33125 90.0739
lradius 57.5867
lwrist -0.821097
lhand -20.4676 -1.98552
lfingers 7.12502
lthumb 5.8884 27.9127
rfemur -20.8014 -1.78656 21.6834
rtibia 41.1891
rfoot -14.0581 -6.51362
rtoes -16.3773
lfemur -26.8042 -8.62955 -19.8281
ltibia 49.1361
lfoot -15.3085 -4.28867
ltoes 5.45079
210
root -10.2939 17.5367 -30.9027 -184.817 -27.4881 182.42
lowerback 9.77377 -1.51999 1.8342
upperback -1.19725 -1.70223 3.01101
thorax -6.71373 -0.882463 2.40151
lowerneck -18.0691 -1.52503 -2.54058
upperneck 16.8039 -1.22844 -1.44117
head 8.20325 -0.945995 -0.224007
rclavicle -2.08724e-015 3.26007e-014
rhumerus -40.1743 -16.8179 -57.0503
rradius 26.5081
rwrist 9.58762
rhand -21.1457 -7.80886
rfingers 7.12502
rthumb 5.23368 -37.7242
lclavicle -2.08724e-015 3.26007e-014
lhumerus -40.3971 -5.73112 89.9881
lradius 56.981
lwrist -1.65198
lhand -20.1707 -1.86835
lfingers 7.12502
lthumb 6.17502 28.0217
rfemur -20.4922 -1.60102 22.0046
rtibia 40.7018
rfoot -14.0223 -6.96649
rtoes -16.0548
lfemur -26.6131 -8.64271 -19.5229
ltibia 48.9149
lfoot -15.5602 -4.47568
ltoes 5.88905
211
root -10.3197 17.5641 -30.9772 -184.671 -27.5838 182.612
lowerback 9.55301 -1.46577 1.96329
upperback -1.31216 -1.61699 3.09074
thorax -6.71372 -0.845354 2.39558
lowerneck -18.1361 -1.53406 -2.55091
upperneck 17.2017 -1.19789 -1.67694
head 8.34827 -0.968954 -0.302088
rclavicle 2.08724e-015 2.78299e-014
rhumerus -40.9762 -17.594 -55.9604
rradius 26.035
rwrist 9.55488
rhand -20.8816 -8.27041
rfingers 7.12502
rthumb 5.48865 -38.1793
lclavicle 2.08724e-015 2.78299e-014
lhumerus -40.3462 -5.05038 89.8787
lradius 56.3391
lwrist -2.41388
lhand -19.9099 -1.74492
lfingers 7.12502
lthumb 6.42684 28.1376
rfemur -20.224 -1.41175 22.2418
rtibia 40.2665
rfoot -14.0534 -7.29368
rtoes -15.6994
lfemur -26.422 -8.65841 -19.2967
ltibia 48.6812
lfoot -15.8023 -4.5948
ltoes 6.27219
212
root -10.3453 17.5898 -31.0511 -184.465 -27.6503 182.678
lowerback 9.31525 -1.3933 1.97597
upperback -1.41435 -1.52243 3.13341
thorax -6.68822 -0.799032 2.4138
lowerneck -18.2061 -1.54086 -2.56135
upperneck 17.5912 -1.16941 -1.88055
head 8.49189 -0.99008 -0.370105
rclavicle -2.23384e-014 4.37326e-014
rhumerus -41.81 -18.4295 -54.876
rradius 25.649
rwrist 9.56589
rhand -20.7321 -8.73597
rfingers 7.12502
rthumb 5.63297 -38.6411
lclavicle -2.23384e-014 4.37326e-014
lhumerus -40.269 -4.30086 89.7377
lradius 55.6712
lwrist -3.08015
lhand -19.6838 -1.61718
lfingers 7.12502
lthumb 6.64508 28.2586
rfemur -19.9839 -1.24129 22.3548
rtibia 39.8813
rfoot -14.1252 -7.54598
rtoes -15.3587
lfemur -26.2186 -8.67959 -19.1931
ltibia 48.4282
lfoot -16.032 -4.65679
ltoes 6.57848
